<svg id="svg" xmlns="http://www.w3.org/2000/svg" xmlns:xlink="http://www.w3.org/1999/xlink" width="400" height="231.4176245210728" viewBox="0, 0, 400,231.4176245210728"><g id="svgg"><path id="path0" d="M24.521 93.487 L 24.521 186.973 42.912 186.973 L 61.303 186.973 61.331 131.418 L 61.359 75.862 80.105 109.154 C 90.415 127.464,99.453 142.264,100.189 142.041 C 100.925 141.819,118.069 112.182,138.287 76.182 L 175.047 10.728 184.075 10.728 L 193.103 10.728 193.103 93.487 L 193.103 176.245 186.222 176.245 L 179.340 176.245 178.942 104.208 L 178.544 32.172 151.440 80.071 C 136.532 106.415,122.485 131.286,120.223 135.340 L 116.111 142.712 123.410 142.237 L 130.709 141.762 149.263 108.836 L 167.816 75.909 168.218 131.441 L 168.621 186.973 186.992 186.973 L 205.364 186.973 205.364 93.441 L 205.364 -0.092 186.042 0.337 L 166.720 0.766 133.763 59.371 C 115.636 91.603,100.280 117.651,99.638 117.254 C 98.996 116.857,87.971 97.898,75.139 75.123 C 62.307 52.347,51.186 33.328,50.425 32.858 C 49.610 32.354,49.042 61.640,49.042 104.124 L 49.042 176.245 42.146 176.245 L 35.249 176.245 35.249 93.487 L 35.249 10.728 44.828 10.733 L 54.406 10.738 76.628 50.552 C 99.715 91.915,100.129 92.420,104.632 84.710 L 107.376 80.011 84.884 40.006 L 62.392 0.000 43.456 0.000 L 24.521 0.000 24.521 93.487 M254.406 93.380 L 254.406 186.973 272.797 186.973 L 291.188 186.973 291.188 143.439 L 291.188 99.904 313.027 99.377 C 347.740 98.540,360.588 86.710,358.261 57.727 C 356.149 31.410,345.360 24.391,305.364 23.314 L 278.927 22.602 278.927 48.849 L 278.927 75.096 285.057 75.096 L 291.188 75.096 291.188 55.172 L 291.188 35.249 309.195 35.283 C 338.540 35.338,347.640 42.578,346.046 64.607 C 344.683 83.457,337.004 87.749,303.065 88.629 L 278.927 89.255 278.927 132.750 L 278.927 176.245 272.031 176.245 L 265.134 176.245 265.134 93.487 L 265.134 10.728 293.971 10.728 C 351.091 10.728,369.273 21.581,371.973 57.291 C 374.539 91.218,354.689 111.877,319.524 111.877 L 304.981 111.877 304.981 118.008 L 304.981 124.138 319.157 124.120 C 356.192 124.072,378.401 106.067,383.459 71.988 C 387.855 42.371,375.602 17.162,351.190 5.596 L 340.996 0.766 297.701 0.276 L 254.406 -0.213 254.406 93.380 M0.000 222.989 L 0.000 231.418 200.000 231.418 L 400.000 231.418 400.000 222.989 L 400.000 214.559 200.000 214.559 L 0.000 214.559 0.000 222.989 " stroke="none" fill="#000000" fill-rule="evenodd"></path></g></svg>